<svg width="24" height="24" viewBox="0 0 24 24" fill="none" xmlns="http://www.w3.org/2000/svg">
<path d="M17.6836 9.27973L12.9055 2.16976C12.8034 2.0262 12.6675 1.90966 12.5097 1.8303C12.3519 1.75095 12.1769 1.71121 12 1.71455C11.6509 1.71455 11.3018 1.86629 11.0945 2.1806L6.31636 9.27973H1.09091C0.490909 9.27973 0 9.76746 0 10.3636C0 10.4611 0.0109091 10.5587 0.0436363 10.6562L2.81455 20.7034C3.06545 21.6138 3.90545 22.2858 4.90909 22.2858H19.0909C20.0945 22.2858 20.9345 21.6138 21.1964 20.7034L23.9673 10.6562L24 10.3636C24 9.76746 23.5091 9.27973 22.9091 9.27973H17.6836ZM8.72727 9.27973L12 4.51085L15.2727 9.27973H8.72727ZM12 17.9504C10.8 17.9504 9.81818 16.975 9.81818 15.7828C9.81818 14.5905 10.8 13.6151 12 13.6151C13.2 13.6151 14.1818 14.5905 14.1818 15.7828C14.1818 16.975 13.2 17.9504 12 17.9504Z" fill="white"/>
</svg>
